<svg width="24" height="25" viewBox="0 0 24 25" fill="none" xmlns="http://www.w3.org/2000/svg">
<g id="Icon">
<path id="Vector" d="M20.5153 10.2288L13.0153 3.15255C13.0116 3.14935 13.0082 3.1459 13.005 3.14223C12.7289 2.89111 12.369 2.75195 11.9958 2.75195C11.6225 2.75195 11.2627 2.89111 10.9866 3.14223L10.9763 3.15255L3.48469 10.2288C3.33187 10.3693 3.20989 10.54 3.12646 10.7301C3.04303 10.9202 2.99997 11.1256 3 11.3332V20.0004C3 20.3982 3.15804 20.7797 3.43934 21.061C3.72064 21.3423 4.10218 21.5004 4.5 21.5004H9C9.39782 21.5004 9.77936 21.3423 10.0607 21.061C10.342 20.7797 10.5 20.3982 10.5 20.0004V15.5004H13.5V20.0004C13.5 20.3982 13.658 20.7797 13.9393 21.061C14.2206 21.3423 14.6022 21.5004 15 21.5004H19.5C19.8978 21.5004 20.2794 21.3423 20.5607 21.061C20.842 20.7797 21 20.3982 21 20.0004V11.3332C21 11.1256 20.957 10.9202 20.8735 10.7301C20.7901 10.54 20.6681 10.3693 20.5153 10.2288ZM19.5 20.0004H15V15.5004C15 15.1025 14.842 14.721 14.5607 14.4397C14.2794 14.1584 13.8978 14.0004 13.5 14.0004H10.5C10.1022 14.0004 9.72064 14.1584 9.43934 14.4397C9.15804 14.721 9 15.1025 9 15.5004V20.0004H4.5V11.3332L4.51031 11.3238L12 4.25036L19.4906 11.3219L19.5009 11.3313L19.5 20.0004Z" fill="white"/>
</g>
</svg>
